<?xml version="1.0" encoding="utf-8"?>
<svg version="1.1" xmlns:xlink="http://www.w3.org/1999/xlink" width="32px" height="38px" xmlns="http://www.w3.org/2000/svg">
  <g transform="matrix(1 0 0 1 -294 -137 )">
    <path d="M 31.7875 27.4733072916667  C 31.9291666666667 28.7185329861111  32 30.0421006944444  32 31.4440104166667  C 32 33.2417534722222  31.4791666666667 34.7838541666667  30.4375 36.0703125  C 29.3958333333333 37.3567708333333  28.1416666666667 38  26.675 38  L 5.325 38  C 3.85833333333333 38  2.60416666666667 37.3567708333333  1.5625 36.0703125  C 0.520833333333333 34.7838541666667  0 33.2417534722222  0 31.4440104166667  C 0 30.0421006944444  0.0708333333333335 28.7185329861111  0.2125 27.4733072916667  C 0.354166666666667 26.2280815972222  0.616666666666667 24.974609375  1 23.712890625  C 1.38333333333333 22.451171875  1.87083333333333 21.3708767361111  2.4625 20.4720052083333  C 3.05416666666667 19.5731336805556  3.8375 18.8391927083333  4.8125 18.2701822916667  C 5.7875 17.701171875  6.90833333333333 17.4166666666667  8.175 17.4166666666667  C 10.3583333333333 19.5277777777778  12.9666666666667 20.5833333333333  16 20.5833333333333  C 19.0333333333333 20.5833333333333  21.6416666666667 19.5277777777778  23.825 17.4166666666667  C 25.0916666666667 17.4166666666667  26.2125 17.701171875  27.1875 18.2701822916667  C 28.1625 18.8391927083333  28.9458333333333 19.5731336805556  29.5375 20.4720052083333  C 30.1291666666667 21.3708767361111  30.6166666666667 22.451171875  31 23.712890625  C 31.3833333333333 24.974609375  31.6458333333333 26.2280815972222  31.7875 27.4733072916667  Z M 22.7875 2.783203125  C 24.6625 4.638671875  25.6 6.87760416666667  25.6 9.5  C 25.6 12.1223958333333  24.6625 14.361328125  22.7875 16.216796875  C 20.9125 18.072265625  18.65 19  16 19  C 13.35 19  11.0875 18.072265625  9.2125 16.216796875  C 7.3375 14.361328125  6.4 12.1223958333333  6.4 9.5  C 6.4 6.87760416666667  7.3375 4.638671875  9.2125 2.783203125  C 11.0875 0.927734375  13.35 0  16 0  C 18.65 0  20.9125 0.927734375  22.7875 2.783203125  Z " fill-rule="nonzero" fill="#009688" stroke="none" transform="matrix(1 0 0 1 294 137 )" />
  </g>
</svg>