<?xml version="1.0" encoding="utf-8"?>
<svg version="1.1" xmlns:xlink="http://www.w3.org/1999/xlink" width="19px" height="19px" xmlns="http://www.w3.org/2000/svg">
  <g transform="matrix(1 0 0 1 -1523 -144 )">
    <path d="M 4.42299503193754 14.5738636363636  C 4.92642536077596 15.0776515151515  5.17814052519517 15.6893939393939  5.17814052519517 16.4090909090909  C 5.17814052519517 17.1287878787879  4.92642536077596 17.7405303030303  4.42299503193754 18.2443181818182  C 3.91956470309912 18.7481060606061  3.30825644665247 19  2.58907026259759 19  C 1.8698840785427 19  1.25857582209605 18.7481060606061  0.75514549325763 18.2443181818182  C 0.25171516441921 17.7405303030303  0 17.1287878787879  0 16.4090909090909  C 0 15.6893939393939  0.25171516441921 15.0776515151515  0.75514549325763 14.5738636363636  C 1.25857582209605 14.0700757575758  1.8698840785427 13.8181818181818  2.58907026259759 13.8181818181818  C 3.30825644665247 13.8181818181818  3.91956470309912 14.0700757575758  4.42299503193754 14.5738636363636  Z M 10.9968062455642 13.9396306818182  C 11.6036195883605 15.2530776515152  11.9654601372132 16.6294981060606  12.0823278921221 18.0688920454545  C 12.1003075467234 18.3207859848485  12.0238940146676 18.5366950757576  11.8530872959546 18.7166193181818  C 11.6912704045422 18.9055397727273  11.4800094629761 19  11.2193044712562 19  L 9.39886444286728 19  C 9.17411876035013 19  8.98083747338538 18.92578125  8.81902058197303 18.77734375  C 8.65720369056068 18.62890625  8.56730541755382 18.4422348484849  8.54932576295245 18.2173295454545  C 8.35154956233736 16.157196969697  7.52223799384907 14.3961884469697  6.06139105748758 12.9343039772727  C 4.60054412112609 11.4724195075758  2.8407854270168 10.6425189393939  0.782114975159688 10.4446022727273  C 0.557369292642536 10.4266098484848  0.3708303761533 10.3366477272727  0.22249822569198 10.1747159090909  C 0.07416607523066 10.0127840909091  0 9.81936553030303  0 9.59446022727273  L 0 7.77272727272727  C 0 7.51183712121212  0.0943931866572037 7.30042613636363  0.283179559971611 7.13849431818182  C 0.436006624083274 6.98555871212121  0.629287911048025 6.90909090909091  0.863023420865862 6.90909090909091  L 0.930447125621008 6.90909090909091  C 2.36881949373078 7.02604166666667  3.74426307073575 7.38813920454545  5.05677785663591 7.99538352272727  C 6.36929264253608 8.60262784090909  7.53347527797492 9.41903409090909  8.54932576295245 10.4446022727273  C 9.57416607523066 11.4611742424242  10.3899929027679 12.6261837121212  10.9968062455642 13.9396306818182  Z M 17.3683463449255 11.3284801136364  C 18.3302578660989 13.4830729166667  18.8696475041401 15.7388731060606  18.986515259049 18.0958806818182  C 19.0044949136503 18.3387784090909  18.9235864679442 18.5501893939394  18.7437899219304 18.7301136363636  C 18.5819730305181 18.9100378787879  18.3752070026023 19  18.1234918381831 19  L 16.1951738821859 19  C 15.9614383723681 19  15.7614147149278 18.9212831439394  15.5951029098652 18.7638494318182  C 15.4287911048025 18.606415719697  15.3411402886208 18.4152462121212  15.3321504613201 18.1903409090909  C 15.2242725337119 16.2561553030303  14.7702862550272 14.4186789772727  13.9701916252661 12.6779119318182  C 13.1700969955051 10.9371448863636  12.1295244854507 9.42578125  10.8484740951029 8.14382102272727  C 9.56742370475515 6.86186079545455  8.05713271823989 5.82054924242424  6.31760113555713 5.01988636363636  C 4.57806955287438 4.21922348484848  2.74189732670925 3.76041666666666  0.809084457061746 3.64346590909091  C 0.584338774544594 3.6344696969697  0.393304944405015 3.54675662878788  0.235982966643009 3.38032670454545  C 0.0786609888810031 3.21389678030303  0 3.01822916666666  0 2.79332386363636  L 0 0.863636363636363  C 0 0.611742424242423  0.0898982730068607 0.404829545454546  0.269694819020582 0.242897727272728  C 0.431511710432931 0.0809659090909093  0.629287911048025 0  0.863023420865862 0  L 0.90347764371895 0  C 3.2588123964987 0.116950757575755  5.51301159214573 0.656723484848482  7.66607523066004 1.61931818181818  C 9.81913886917436 2.58191287878788  11.7317246273953 3.90435606060606  13.4038325053229 5.58664772727273  C 15.0849302105512 7.25994318181818  16.4064348237521 9.17388731060606  17.3683463449255 11.3284801136364  Z " fill-rule="nonzero" fill="#f00707" stroke="none" transform="matrix(1 0 0 1 1523 144 )" />
  </g>
</svg>