<svg t="1604817931037" class="icon" viewBox="0 0 1024 1024" version="1.1" xmlns="http://www.w3.org/2000/svg" p-id="1918" width="32" height="32"><path d="M277.28 173.12a26.56 26.56 0 0 1 10.72-36.8 32 32 0 0 1 16-3.84 30.08 30.08 0 0 1 21.92 13.6l36.48 60.96-48 26.88z m470.4 0a25.92 25.92 0 0 0-10.88-36.8 30.08 30.08 0 0 0-38.72 9.6l-35.52 60.96 48 26.88z m-208-68.64a28.16 28.16 0 0 0-56.16 0v70.4h56.32v-70.4z m361.44 192a29.76 29.76 0 0 0-21.12-14.4 30.72 30.72 0 0 0-16 2.88L800.96 320l27.68 48 64-35.68a26.56 26.56 0 0 0 8.48-36.64z m-56.48 572.8h-21.76a19.68 19.68 0 0 0 2.88-10.56v-29.12a24.16 24.16 0 0 0-24.8-24.16h-576a24.16 24.16 0 0 0-24.8 24.16v29.12a19.68 19.68 0 0 0 2.88 10.56h-21.76a24.16 24.16 0 0 0-24.8 24.16v28.96a24.16 24.16 0 0 0 24.8 24.16h664.32a24.16 24.16 0 0 0 24.8-24.16v-28.96a26.56 26.56 0 0 0-25.76-24.16z m-72.32-89.76H252.64V512a256 256 0 0 1 260.48-252.96A256.8 256.8 0 0 1 773.6 512v267.52zM474.4 557.44a133.12 133.12 0 0 0-134.56-131.36v263.68a133.44 133.44 0 0 0 134.56-132.32z m209.76-131.52a131.36 131.36 0 1 0 0 262.72V425.92zM224 321.76l-64-35.68a19.04 19.04 0 0 0-9.76-2.88 28.96 28.96 0 0 0-27.68 13.6 25.76 25.76 0 0 0 9.92 36.8l64 35.52z" p-id="1919" fill="#4FF5F4"></path></svg>