<svg t="1604818176239" class="icon" viewBox="0 0 1024 1024" version="1.1" xmlns="http://www.w3.org/2000/svg" p-id="2363" width="16" height="16"><path d="M717.315683 442.014388l-193.381295-26.520863 14.21813-197.506762a44.201439 44.201439 0 0 0-82.877698-24.310792L273.827914 526.512806a44.201439 44.201439 0 0 0 32.782733 64.902446L456.748201 612.04259l-15.912518 193.675971a44.201439 44.201439 0 0 0 80.299281 28.951943l226.237698-323.77554A44.201439 44.201439 0 0 0 717.315683 442.014388z m-213.124604 314.272231l12.59741-153.305324A44.201439 44.201439 0 0 0 478.848921 555.538417l-142.917986-19.595971 138.571511-254.600288L464.115108 424.775827A44.201439 44.201439 0 0 0 502.275683 471.482014L685.122302 496.897842z" fill="#FF0C0E" p-id="2364"></path><path d="M512 0A512 512 0 1 0 1024 512 512.589353 512.589353 0 0 0 512 0z m0 965.064748A453.064748 453.064748 0 1 1 965.064748 512 453.580432 453.580432 0 0 1 512 965.064748z" fill="#FF0C0E" p-id="2365"></path></svg>