<svg t="1604818320996" class="icon" viewBox="0 0 1051 1024" version="1.1" xmlns="http://www.w3.org/2000/svg" p-id="2919" width="16" height="16"><path d="M628.882649 956.814735H63.384002A63.921204 63.921204 0 0 1 0.006809 895.341578V123.663048a63.921204 63.921204 0 0 1 60.113131-64.737219H155.049728V123.663048A66.91326 66.91326 0 0 0 220.330957 191.664329a66.36925 66.36925 0 0 0 65.281229-66.097245V58.925829H583.457794V123.663048a65.281229 65.281229 0 1 0 130.562458 2.176041V58.925829h91.937731A63.921204 63.921204 0 0 1 870.423197 120.398987v435.208194l-22.032415-1.904036h-21.216399A248.340676 248.340676 0 0 0 611.202316 926.078156zM63.384002 99.726598a23.39244 23.39244 0 0 0-22.576425 23.93645v768.414468a23.39244 23.39244 0 0 0 22.576425 23.936451H560.337358a289.141444 289.141444 0 0 1 265.749004-402.839585h2.448046V123.663048a23.39244 23.39244 0 0 0-22.576425-23.93645h-50.864958v27.200512A106.081997 106.081997 0 1 1 544.017051 123.663048v-23.93645H326.412954v27.200512a107.170018 107.170018 0 0 1-106.081997 106.081997 108.802049 108.802049 0 0 1-106.081998-108.802048v-24.480461z m359.862775 605.211395a190.403585 190.403585 0 0 1-188.227544-190.403585c0-88.67367 70.993337-161.027032 167.82716-174.627288V255.857537l160.755027 129.474438v32.36861l-160.755027 113.15413v-74.529403a66.097244 66.097244 0 0 0-54.401024 59.569121 75.345419 75.345419 0 1 0 150.962842 0v-20.400384h112.882126v20.400384a190.403585 190.403585 0 0 1-189.04356 189.04356z m20.400384-363.942853v37.536707h-19.312363c-72.081357 4.352082-148.514796 54.401024-148.514796 136.002561a147.426776 147.426776 0 0 0 293.493525 20.400384h-31.552594a116.146187 116.146187 0 0 1-230.660342-20.400384c0-61.745163 57.665086-99.281869 114.514156-104.177962l22.30442-1.904036v42.704804L516.816539 400.564262zM221.418977 186.768236A56.577065 56.577065 0 0 1 163.209881 133.999243V59.741845A57.121075 57.121075 0 0 1 278.540053 55.661768v75.345419a56.577065 56.577065 0 0 1-57.121076 55.761049z m0-141.986673a15.776297 15.776297 0 0 0-16.320307 15.232287v70.993337a16.320307 16.320307 0 0 0 32.640615 0V59.741845a16.048302 16.048302 0 0 0-16.320308-14.960282z m428.952077 139.266622a56.577065 56.577065 0 0 1-57.121076-53.040998V57.293799A57.121075 57.121075 0 0 1 707.220124 54.301742v73.985393a56.577065 56.577065 0 0 1-56.84907 55.76105z m0-141.986673a15.776297 15.776297 0 0 0-16.320308 15.232287v70.993336a16.320307 16.320307 0 0 0 32.640615 0V57.293799a16.048302 16.048302 0 0 0-16.320307-15.232287z" p-id="2920" fill="#4FC18C"></path><path d="M822.822301 1024a227.124276 227.124276 0 1 1 227.124276-227.124276 227.396281 227.396281 0 0 1-227.124276 227.124276z m0-408.007682a180.883406 180.883406 0 1 0 180.883405 180.883406 181.155411 181.155411 0 0 0-180.883405-180.883406z" p-id="2921" fill="#4FC18C"></path><path d="M797.797829 895.885588a25.296476 25.296476 0 0 1 24.752466-27.200512 25.568481 25.568481 0 0 1 25.568482 27.200512 25.024471 25.024471 0 0 1-25.568482 27.200512 24.752466 24.752466 0 0 1-24.752466-27.200512z m7.072134-185.235488v-38.624727h37.808711v38.624727l-5.168097 130.562458h-25.024471z" p-id="2922" fill="#4FC18C"></path></svg>