<?xml version="1.0" encoding="UTF-8" standalone="no"?>
<!DOCTYPE svg PUBLIC "-//W3C//DTD SVG 1.1//EN" "http://www.w3.org/Graphics/SVG/1.1/DTD/svg11.dtd">
<svg t="1617761192079" class="icon" viewBox="0 0 1024 1024" version="1.1" xmlns="http://www.w3.org/2000/svg" p-id="2490" width="293" height="293"><path d="M758.67 758.67c32.03-32.03 57.18-69.33 74.75-110.87 18.2-43.02 27.42-88.71 27.42-135.79s-9.23-92.77-27.42-135.79c-17.57-41.54-42.72-78.85-74.75-110.87-32.03-32.03-69.33-57.18-110.88-74.75-43.02-18.2-88.71-27.42-135.79-27.42s-92.77 9.23-135.79 27.42c-41.54 17.57-78.85 42.72-110.87 74.75-32.03 32.03-57.18 69.33-74.75 110.87-18.2 43.02-27.42 88.71-27.42 135.79s9.23 92.77 27.42 135.79c17.57 41.54 42.72 78.85 74.75 110.87 32.03 32.03 69.33 57.18 110.87 74.75 43.02 18.2 88.71 27.42 135.79 27.42s92.77-9.23 135.79-27.42c41.54-17.58 78.85-42.73 110.88-74.75z m-309.02-27.03c-3.7-9.8-7.1-20.17-10.23-31.02 22.53-4.61 47.11-7.04 72.58-7.04s50.05 2.43 72.58 7.04c-3.13 10.85-6.54 21.22-10.23 31.02-18.19 48.24-42.08 78.2-62.35 78.2s-44.16-29.97-62.35-78.2zM512 214.16c20.27 0 44.16 29.96 62.35 78.2 4.03 10.7 7.73 22.06 11.08 34-22.76 4.73-47.64 7.21-73.43 7.21-25.79 0-50.67-2.49-73.43-7.21 3.35-11.94 7.05-23.3 11.08-34 18.19-48.23 42.08-78.2 62.35-78.2z m0 170.41c29.54 0 58.26-2.94 84.79-8.53 6.25 34.27 10.07 71.6 11.24 110.46H415.97c1.17-38.86 4.99-76.19 11.24-110.46 26.53 5.59 55.26 8.53 84.79 8.53z m96.03 152.93c-1.2 40.01-5.21 78.4-11.79 113.5-26.38-5.52-54.91-8.42-84.24-8.42s-57.86 2.9-84.24 8.42c-6.58-35.1-10.59-73.49-11.79-113.5h192.06z m14.04 212.13c4.08-10.83 7.85-22.26 11.29-34.19 2.93 1.25 5.79 2.54 8.56 3.88 21.94 10.63 36.84 23.54 42.01 35.95-25.71 18.25-53.97 32.17-83.86 41.38 7.98-13.66 15.34-29.36 22-47.02z m101.54-28.05c-12.11-18.52-32.23-34.97-59.45-48.15-5.99-2.9-12.26-5.61-18.77-8.12 7.72-39.56 12.39-82.84 13.67-127.8h149.69c-5.85 69.45-35.55 134.01-85.14 184.07z m85.14-235.08H659.06c-1.25-43.85-5.72-86.11-13.1-124.87 6.31-2.45 12.39-5.08 18.2-7.9 28.15-13.64 48.71-30.75 60.67-50.06 48.85 49.89 78.11 113.94 83.92 182.83z m-123.9-217.11c-4.11 13.16-19.51 27.1-42.93 38.44-2.52 1.22-5.11 2.39-7.75 3.53-3.66-12.95-7.7-25.32-12.1-37-6.66-17.66-14.02-33.36-21.99-47.02 30.25 9.33 58.82 23.47 84.77 42.05z m-260.93-42.04c-7.98 13.66-15.33 29.36-21.99 47.02-4.4 11.68-8.44 24.04-12.1 37-2.64-1.14-5.23-2.31-7.75-3.53-23.42-11.34-38.82-25.28-42.93-38.44 25.95-18.59 54.52-32.73 84.77-42.05z m-124.75 76.32c11.96 19.3 32.52 36.42 60.67 50.06 5.81 2.82 11.9 5.45 18.2 7.9-7.38 38.76-11.85 81.02-13.1 124.87H215.25c5.81-68.89 35.07-132.94 83.92-182.83zM215.25 537.5h149.69c1.28 44.97 5.95 88.25 13.67 127.8-6.51 2.51-12.78 5.22-18.77 8.12-27.22 13.19-47.34 29.63-59.45 48.15-49.59-50.05-79.28-114.61-85.14-184.07z m124.81 217.78c5.17-12.41 20.07-25.32 42.01-35.95 2.77-1.34 5.64-2.63 8.56-3.88 3.45 11.93 7.21 23.36 11.29 34.19 6.66 17.66 14.02 33.36 21.99 47.02a294.97 294.97 0 0 1-83.85-41.38z" fill="#515151" p-id="2491"></path><path d="M567.3 115.08c43.49 6 85.4 19.05 124.58 38.77 38.23 19.25 73.02 44.42 103.4 74.81 30.38 30.39 55.54 65.19 74.78 103.43 19.72 39.19 32.76 81.11 38.77 124.6 1.76 12.77 12.69 22.02 25.23 22.02 1.16 0 2.34-0.08 3.52-0.24 13.95-1.93 23.7-14.8 21.77-28.75-6.77-49.06-21.49-96.35-43.73-140.56-21.69-43.11-50.05-82.32-84.27-116.56-34.23-34.24-73.43-62.6-116.53-84.3-44.2-22.26-91.49-36.97-140.54-43.75-13.96-1.93-26.82 7.82-28.75 21.77-1.93 13.96 7.82 26.83 21.77 28.76zM86.43 478.47c1.18 0.16 2.36 0.24 3.52 0.24 12.53 0 23.47-9.25 25.23-22.02 6-43.49 19.05-85.42 38.77-124.6 19.25-38.25 44.41-73.04 74.78-103.43 30.38-30.39 65.16-55.56 103.4-74.81 39.18-19.73 81.09-32.77 124.58-38.78 13.95-1.93 23.7-14.8 21.77-28.75s-14.8-23.7-28.75-21.77c-49.06 6.77-96.34 21.49-140.54 43.75-43.1 21.7-82.3 50.06-116.53 84.3-34.22 34.24-62.58 73.45-84.27 116.56-22.25 44.21-36.96 91.5-43.73 140.56-1.93 13.95 7.82 26.83 21.77 28.75zM456.7 908.92c-43.49-6-85.4-19.05-124.58-38.78-38.23-19.25-73.02-44.42-103.4-74.81-30.38-30.39-55.54-65.19-74.78-103.43-19.72-39.19-32.76-81.11-38.77-124.6-1.93-13.95-14.8-23.7-28.75-21.77-13.95 1.93-23.7 14.8-21.77 28.75 6.77 49.06 21.49 96.35 43.73 140.56 21.69 43.11 50.05 82.32 84.27 116.56 34.23 34.24 73.43 62.6 116.53 84.3 44.2 22.26 91.49 36.98 140.54 43.75 1.18 0.16 2.36 0.24 3.52 0.24 12.54 0 23.47-9.25 25.23-22.02 1.93-13.95-7.82-26.82-21.77-28.75zM937.57 545.53c-13.95-1.92-26.82 7.82-28.75 21.77-6 43.49-19.05 85.42-38.77 124.6-19.25 38.25-44.41 73.04-74.78 103.43-30.38 30.39-65.16 55.56-103.4 74.81-39.18 19.73-81.09 32.77-124.58 38.78-13.95 1.93-23.7 14.8-21.77 28.75 1.76 12.77 12.69 22.02 25.23 22.02 1.16 0 2.34-0.08 3.52-0.24 49.06-6.77 96.34-21.49 140.54-43.75 43.1-21.7 82.3-50.06 116.53-84.3 34.22-34.24 62.58-73.45 84.27-116.56 22.25-44.21 36.96-91.5 43.73-140.56 1.93-13.96-7.82-26.83-21.77-28.75z" fill="#515151" p-id="2492"></path></svg>